<svg width="197" height="32" viewBox="0 0 197 32" fill="none" xmlns="http://www.w3.org/2000/svg">
<path fill-rule="evenodd" clip-rule="evenodd" d="M10.2215 29.3333H21.777C26.2974 29.3333 29.3333 26.1625 29.3333 21.4443V10.5556C29.3333 5.83744 26.2974 2.66663 21.7784 2.66663H10.2215C5.70249 2.66663 2.66663 5.83744 2.66663 10.5556V21.4443C2.66663 26.1625 5.70249 29.3333 10.2215 29.3333ZM11.3318 14.6666C9.49358 14.6666 7.99996 13.171 7.99996 11.3333C7.99996 9.4956 9.49358 7.99996 11.3318 7.99996C13.1686 7.99996 14.6636 9.4956 14.6636 11.3333C14.6636 13.171 13.1686 14.6666 11.3318 14.6666ZM26.4277 19.9119C26.8742 21.0567 26.6422 22.4327 26.1649 23.5665C25.5991 24.915 24.5158 25.936 23.1509 26.3818C22.5448 26.5799 21.9093 26.6666 21.2751 26.6666H10.0382C8.91995 26.6666 7.93046 26.3983 7.1193 25.8988C6.61115 25.5851 6.52131 24.8613 6.89807 24.3921C7.52823 23.6078 8.15035 22.8207 8.77783 22.0268C9.97379 20.5077 10.7796 20.0674 11.6752 20.454C12.0386 20.6137 12.4033 20.8531 12.7787 21.1063C13.7789 21.786 15.1693 22.7203 17.0008 21.7062C18.2541 21.0042 18.981 19.8001 19.6141 18.7516L19.6247 18.7341C19.6695 18.6605 19.714 18.5869 19.7583 18.5136L19.7583 18.5135C19.9711 18.1615 20.181 17.8142 20.4184 17.4943C20.716 17.0939 21.8195 15.8417 23.2487 16.7334C24.1591 17.2948 24.9247 18.0543 25.7439 18.8675C26.0563 19.1785 26.2789 19.5321 26.4277 19.9119Z" fill="#1E86FF"/>
<path d="M54.32 23.14C53.2933 23.14 52.3733 22.9733 51.56 22.64C50.7467 22.3067 50.0933 21.8133 49.6 21.16C49.12 20.5067 48.8667 19.72 48.84 18.8H52.48C52.5333 19.32 52.7133 19.72 53.02 20C53.3267 20.2667 53.7267 20.4 54.22 20.4C54.7267 20.4 55.1267 20.2867 55.42 20.06C55.7133 19.82 55.86 19.4933 55.86 19.08C55.86 18.7333 55.74 18.4467 55.5 18.22C55.2733 17.9933 54.9867 17.8067 54.64 17.66C54.3067 17.5133 53.8267 17.3467 53.2 17.16C52.2933 16.88 51.5533 16.6 50.98 16.32C50.4067 16.04 49.9133 15.6267 49.5 15.08C49.0867 14.5333 48.88 13.82 48.88 12.94C48.88 11.6333 49.3533 10.6133 50.3 9.88C51.2467 9.13333 52.48 8.76 54 8.76C55.5467 8.76 56.7933 9.13333 57.74 9.88C58.6867 10.6133 59.1933 11.64 59.26 12.96H55.56C55.5333 12.5067 55.3667 12.1533 55.06 11.9C54.7533 11.6333 54.36 11.5 53.88 11.5C53.4667 11.5 53.1333 11.6133 52.88 11.84C52.6267 12.0533 52.5 12.3667 52.5 12.78C52.5 13.2333 52.7133 13.5867 53.14 13.84C53.5667 14.0933 54.2333 14.3667 55.14 14.66C56.0467 14.9667 56.78 15.26 57.34 15.54C57.9133 15.82 58.4067 16.2267 58.82 16.76C59.2333 17.2933 59.44 17.98 59.44 18.82C59.44 19.62 59.2333 20.3467 58.82 21C58.42 21.6533 57.8333 22.1733 57.06 22.56C56.2867 22.9467 55.3733 23.14 54.32 23.14ZM66.6247 23.16C65.5314 23.16 64.5447 22.9267 63.6647 22.46C62.798 21.9933 62.1114 21.3267 61.6047 20.46C61.1114 19.5933 60.8647 18.58 60.8647 17.42C60.8647 16.2733 61.118 15.2667 61.6247 14.4C62.1314 13.52 62.8247 12.8467 63.7047 12.38C64.5847 11.9133 65.5714 11.68 66.6647 11.68C67.758 11.68 68.7447 11.9133 69.6247 12.38C70.5047 12.8467 71.198 13.52 71.7047 14.4C72.2114 15.2667 72.4647 16.2733 72.4647 17.42C72.4647 18.5667 72.2047 19.58 71.6847 20.46C71.178 21.3267 70.478 21.9933 69.5847 22.46C68.7047 22.9267 67.718 23.16 66.6247 23.16ZM66.6247 20.2C67.278 20.2 67.8314 19.96 68.2847 19.48C68.7514 19 68.9847 18.3133 68.9847 17.42C68.9847 16.5267 68.758 15.84 68.3047 15.36C67.8647 14.88 67.318 14.64 66.6647 14.64C65.998 14.64 65.4447 14.88 65.0047 15.36C64.5647 15.8267 64.3447 16.5133 64.3447 17.42C64.3447 18.3133 64.558 19 64.9847 19.48C65.4247 19.96 65.9714 20.2 66.6247 20.2ZM73.5991 17.42C73.5991 16.26 73.8324 15.2467 74.2991 14.38C74.7791 13.5133 75.4391 12.8467 76.2791 12.38C77.1324 11.9133 78.1057 11.68 79.1991 11.68C80.5991 11.68 81.7657 12.0467 82.6991 12.78C83.6457 13.5133 84.2657 14.5467 84.5591 15.88H80.9191C80.6124 15.0267 80.0191 14.6 79.1391 14.6C78.5124 14.6 78.0124 14.8467 77.6391 15.34C77.2657 15.82 77.0791 16.5133 77.0791 17.42C77.0791 18.3267 77.2657 19.0267 77.6391 19.52C78.0124 20 78.5124 20.24 79.1391 20.24C80.0191 20.24 80.6124 19.8133 80.9191 18.96H84.5591C84.2657 20.2667 83.6457 21.2933 82.6991 22.04C81.7524 22.7867 80.5857 23.16 79.1991 23.16C78.1057 23.16 77.1324 22.9267 76.2791 22.46C75.4391 21.9933 74.7791 21.3267 74.2991 20.46C73.8324 19.5933 73.5991 18.58 73.5991 17.42ZM88.1084 10.68C87.5084 10.68 87.0151 10.5067 86.6284 10.16C86.2551 9.8 86.0684 9.36 86.0684 8.84C86.0684 8.30667 86.2551 7.86667 86.6284 7.52C87.0151 7.16 87.5084 6.98 88.1084 6.98C88.6951 6.98 89.1751 7.16 89.5484 7.52C89.9351 7.86667 90.1284 8.30667 90.1284 8.84C90.1284 9.36 89.9351 9.8 89.5484 10.16C89.1751 10.5067 88.6951 10.68 88.1084 10.68ZM89.8084 11.84V23H86.3884V11.84H89.8084ZM91.6069 17.4C91.6069 16.2533 91.8202 15.2467 92.2469 14.38C92.6869 13.5133 93.2802 12.8467 94.0269 12.38C94.7735 11.9133 95.6069 11.68 96.5269 11.68C97.3135 11.68 98.0002 11.84 98.5869 12.16C99.1869 12.48 99.6469 12.9 99.9669 13.42V11.84H103.387V23H99.9669V21.42C99.6335 21.94 99.1669 22.36 98.5669 22.68C97.9802 23 97.2935 23.16 96.5069 23.16C95.6002 23.16 94.7735 22.9267 94.0269 22.46C93.2802 21.98 92.6869 21.3067 92.2469 20.44C91.8202 19.56 91.6069 18.5467 91.6069 17.4ZM99.9669 17.42C99.9669 16.5667 99.7269 15.8933 99.2469 15.4C98.7802 14.9067 98.2069 14.66 97.5269 14.66C96.8469 14.66 96.2669 14.9067 95.7869 15.4C95.3202 15.88 95.0869 16.5467 95.0869 17.4C95.0869 18.2533 95.3202 18.9333 95.7869 19.44C96.2669 19.9333 96.8469 20.18 97.5269 20.18C98.2069 20.18 98.7802 19.9333 99.2469 19.44C99.7269 18.9467 99.9669 18.2733 99.9669 17.42ZM109.281 8.2V23H105.861V8.2H109.281ZM124.32 23H120.9L115.18 14.34V23H111.76V8.96H115.18L120.9 17.66V8.96H124.32V23ZM137.319 17.24C137.319 17.56 137.299 17.8933 137.259 18.24H129.519C129.572 18.9333 129.792 19.4667 130.179 19.84C130.579 20.2 131.065 20.38 131.639 20.38C132.492 20.38 133.085 20.02 133.419 19.3H137.059C136.872 20.0333 136.532 20.6933 136.039 21.28C135.559 21.8667 134.952 22.3267 134.219 22.66C133.485 22.9933 132.665 23.16 131.759 23.16C130.665 23.16 129.692 22.9267 128.839 22.46C127.985 21.9933 127.319 21.3267 126.839 20.46C126.359 19.5933 126.119 18.58 126.119 17.42C126.119 16.26 126.352 15.2467 126.819 14.38C127.299 13.5133 127.965 12.8467 128.819 12.38C129.672 11.9133 130.652 11.68 131.759 11.68C132.839 11.68 133.799 11.9067 134.639 12.36C135.479 12.8133 136.132 13.46 136.599 14.3C137.079 15.14 137.319 16.12 137.319 17.24ZM133.819 16.34C133.819 15.7533 133.619 15.2867 133.219 14.94C132.819 14.5933 132.319 14.42 131.719 14.42C131.145 14.42 130.659 14.5867 130.259 14.92C129.872 15.2533 129.632 15.7267 129.539 16.34H133.819ZM145.343 20.1V23H143.603C142.363 23 141.396 22.7 140.703 22.1C140.009 21.4867 139.663 20.4933 139.663 19.12V14.68H138.303V11.84H139.663V9.12H143.083V11.84H145.323V14.68H143.083V19.16C143.083 19.4933 143.163 19.7333 143.323 19.88C143.483 20.0267 143.749 20.1 144.123 20.1H145.343ZM163.268 11.84L160.248 23H156.468L154.708 15.76L152.888 23H149.128L146.088 11.84H149.508L151.088 19.82L152.968 11.84H156.588L158.488 19.78L160.048 11.84H163.268ZM169.652 23.16C168.559 23.16 167.572 22.9267 166.692 22.46C165.825 21.9933 165.139 21.3267 164.632 20.46C164.139 19.5933 163.892 18.58 163.892 17.42C163.892 16.2733 164.145 15.2667 164.652 14.4C165.159 13.52 165.852 12.8467 166.732 12.38C167.612 11.9133 168.599 11.68 169.692 11.68C170.785 11.68 171.772 11.9133 172.652 12.38C173.532 12.8467 174.225 13.52 174.732 14.4C175.239 15.2667 175.492 16.2733 175.492 17.42C175.492 18.5667 175.232 19.58 174.712 20.46C174.205 21.3267 173.505 21.9933 172.612 22.46C171.732 22.9267 170.745 23.16 169.652 23.16ZM169.652 20.2C170.305 20.2 170.859 19.96 171.312 19.48C171.779 19 172.012 18.3133 172.012 17.42C172.012 16.5267 171.785 15.84 171.332 15.36C170.892 14.88 170.345 14.64 169.692 14.64C169.025 14.64 168.472 14.88 168.032 15.36C167.592 15.8267 167.372 16.5133 167.372 17.42C167.372 18.3133 167.585 19 168.012 19.48C168.452 19.96 168.999 20.2 169.652 20.2ZM180.726 13.7C181.126 13.0867 181.626 12.6067 182.226 12.26C182.826 11.9 183.493 11.72 184.226 11.72V15.34H183.286C182.433 15.34 181.793 15.5267 181.366 15.9C180.94 16.26 180.726 16.9 180.726 17.82V23H177.306V11.84H180.726V13.7ZM192.681 23L189.281 18.32V23H185.861V8.2H189.281V16.38L192.661 11.84H196.881L192.241 17.44L196.921 23H192.681Z" fill="#1E86FF"/>
</svg>
