<svg width="32" height="32" viewBox="0 0 32 32" fill="none" xmlns="http://www.w3.org/2000/svg">
<path fill-rule="evenodd" clip-rule="evenodd" d="M24.9428 11.7284C24.9428 13.403 25.3854 14.39 26.3594 15.5274C27.0975 16.3654 27.3334 17.441 27.3334 18.608C27.3334 19.7736 26.9504 20.8801 26.1832 21.7785C25.1787 22.8555 23.7621 23.5431 22.3164 23.6626C20.2213 23.8412 18.125 23.9916 16.0007 23.9916C13.8752 23.9916 11.7801 23.9016 9.68509 23.6626C8.23802 23.5431 6.82144 22.8555 5.8183 21.7785C5.05104 20.8801 4.66675 19.7736 4.66675 18.608C4.66675 17.441 4.90395 16.3654 5.64073 15.5274C6.6452 14.39 7.05864 13.403 7.05864 11.7284V11.1604C7.05864 8.91775 7.61785 7.45132 8.76941 6.01578C10.4815 3.92222 13.2259 2.66663 15.9411 2.66663H16.0604C18.8339 2.66663 21.6671 3.98265 23.35 6.16618C24.4419 7.57218 24.9428 8.97683 24.9428 11.1604V11.7284ZM12.0983 26.7477C12.0983 26.0763 12.7145 25.7688 13.2843 25.6372C13.9509 25.4962 18.0125 25.4962 18.679 25.6372C19.2488 25.7688 19.865 26.0763 19.865 26.7477C19.8319 27.387 19.4569 27.9536 18.9387 28.3135C18.2669 28.8373 17.4784 29.169 16.6542 29.2885C16.1983 29.3476 15.7504 29.3489 15.3105 29.2885C14.4849 29.169 13.6964 28.8373 13.0259 28.3122C12.5065 27.9536 12.1314 27.387 12.0983 26.7477Z" fill="#AAADAF"/>
</svg>
